<?xml version="1.0" encoding="utf-8"?>
<svg version="1.1" xmlns:xlink="http://www.w3.org/1999/xlink" width="40px" height="40px" xmlns="http://www.w3.org/2000/svg">
  <defs>
    <mask fill="white" id="clip258">
      <path d="M 0 15  C 0 13.6095061575341  0.18085207810622 12.2683356090972  0.520783619513131 10.9982609694947  C 2.23438504647539 4.59579032565981  7.9904938424659 0  15 0  C 23.4 0  30 6.59999999999999  30 15  C 30 23.4  23.4 30  15 30  C 6.6 30  0 23.4  0 15  Z " fill-rule="evenodd" />
    </mask>
    <filter x="1px" y="187px" width="40px" height="40px" filterUnits="userSpaceOnUse" id="filter259">
      <feOffset dx="1" dy="1" in="SourceAlpha" result="shadowOffsetInner" />
      <feGaussianBlur stdDeviation="2.5" in="shadowOffsetInner" result="shadowGaussian" />
      <feComposite in2="shadowGaussian" operator="atop" in="SourceAlpha" result="shadowComposite" />
      <feColorMatrix type="matrix" values="0 0 0 0 0  0 0 0 0 0  0 0 0 0 0  0 0 0 0.698039215686274 0  " in="shadowComposite" />
    </filter>
    <g id="widget260">
      <path d="M 0 15  C 0 13.6095061575341  0.18085207810622 12.2683356090972  0.520783619513131 10.9982609694947  C 2.23438504647539 4.59579032565981  7.9904938424659 0  15 0  C 23.4 0  30 6.59999999999999  30 15  C 30 23.4  23.4 30  15 30  C 6.6 30  0 23.4  0 15  Z " fill-rule="nonzero" fill="#009dd9" stroke="none" transform="matrix(1 0 0 1 5 191 )" />
      <path d="M 0 15  C 0 13.6095061575341  0.18085207810622 12.2683356090972  0.520783619513131 10.9982609694947  C 2.23438504647539 4.59579032565981  7.9904938424659 0  15 0  C 23.4 0  30 6.59999999999999  30 15  C 30 23.4  23.4 30  15 30  C 6.6 30  0 23.4  0 15  Z " stroke-width="2" stroke="#ffffff" fill="none" transform="matrix(1 0 0 1 5 191 )" mask="url(#clip258)" />
    </g>
  </defs>
  <g transform="matrix(1 0 0 1 -1 -187 )">
    <use xlink:href="#widget260" filter="url(#filter259)" />
    <use xlink:href="#widget260" />
  </g>
</svg>