<?xml version="1.0" encoding="utf-8"?>
<svg version="1.1" xmlns:xlink="http://www.w3.org/1999/xlink" width="40px" height="40px" xmlns="http://www.w3.org/2000/svg">
  <defs>
    <filter x="85px" y="61px" width="40px" height="40px" filterUnits="userSpaceOnUse" id="filter253">
      <feOffset dx="1" dy="1" in="SourceAlpha" result="shadowOffsetInner" />
      <feGaussianBlur stdDeviation="2.5" in="shadowOffsetInner" result="shadowGaussian" />
      <feComposite in2="shadowGaussian" operator="atop" in="SourceAlpha" result="shadowComposite" />
      <feColorMatrix type="matrix" values="0 0 0 0 0  0 0 0 0 0  0 0 0 0 0  0 0 0 0.698039215686274 0  " in="shadowComposite" />
    </filter>
    <g id="widget254">
      <path d="M 104 65  C 112.4 65  119 71.6  119 80  C 119 88.4  112.4 95  104 95  C 95.6 95  89 88.4  89 80  C 89 71.6  95.6 65  104 65  Z " fill-rule="nonzero" fill="#009dd9" stroke="none" />
      <path d="M 104 65.5  C 112.12 65.5  118.5 71.88  118.5 80  C 118.5 88.12  112.12 94.5  104 94.5  C 95.88 94.5  89.5 88.12  89.5 80  C 89.5 71.88  95.88 65.5  104 65.5  Z " stroke-width="1" stroke="#ffffff" fill="none" />
    </g>
  </defs>
  <g transform="matrix(1 0 0 1 -85 -61 )">
    <use xlink:href="#widget254" filter="url(#filter253)" />
    <use xlink:href="#widget254" />
  </g>
</svg>